<svg width="20" height="20" viewBox="0 0 20 20" fill="none" xmlns="http://www.w3.org/2000/svg">
<path d="M5.5 12.9598H8.2C8.43869 12.9598 8.66761 12.8615 8.8364 12.6864C9.00518 12.5114 9.1 12.274 9.1 12.0265C9.1 11.7789 9.00518 11.5415 8.8364 11.3665C8.66761 11.1915 8.43869 11.0931 8.2 11.0931H5.5C5.2613 11.0931 5.03239 11.1915 4.8636 11.3665C4.69482 11.5415 4.6 11.7789 4.6 12.0265C4.6 12.274 4.69482 12.5114 4.8636 12.6864C5.03239 12.8615 5.2613 12.9598 5.5 12.9598ZM16.3 3.62646H3.7C2.98392 3.62646 2.29716 3.92146 1.79081 4.44657C1.28446 4.97167 1 5.68386 1 6.42646V14.8265C1 15.5691 1.28446 16.2813 1.79081 16.8064C2.29716 17.3315 2.98392 17.6265 3.7 17.6265H16.3C17.0161 17.6265 17.7028 17.3315 18.2092 16.8064C18.7155 16.2813 19 15.5691 19 14.8265V6.42646C19 5.68386 18.7155 4.97167 18.2092 4.44657C17.7028 3.92146 17.0161 3.62646 16.3 3.62646ZM17.2 14.8265C17.2 15.074 17.1052 15.3114 16.9364 15.4864C16.7676 15.6615 16.5387 15.7598 16.3 15.7598H3.7C3.46131 15.7598 3.23239 15.6615 3.0636 15.4864C2.89482 15.3114 2.8 15.074 2.8 14.8265V9.22646H17.2V14.8265ZM17.2 7.3598H2.8V6.42646C2.8 6.17893 2.89482 5.94153 3.0636 5.7665C3.23239 5.59146 3.46131 5.49313 3.7 5.49313H16.3C16.5387 5.49313 16.7676 5.59146 16.9364 5.7665C17.1052 5.94153 17.2 6.17893 17.2 6.42646V7.3598Z" fill="#6B7772"/>
</svg>
