<svg width="20" height="20" viewBox="0 0 20 20" fill="none" xmlns="http://www.w3.org/2000/svg">
<path d="M5.5 12.9597H8.2C8.43869 12.9597 8.66761 12.8613 8.8364 12.6863C9.00518 12.5113 9.1 12.2739 9.1 12.0263C9.1 11.7788 9.00518 11.5414 8.8364 11.3664C8.66761 11.1913 8.43869 11.093 8.2 11.093H5.5C5.2613 11.093 5.03239 11.1913 4.8636 11.3664C4.69482 11.5414 4.6 11.7788 4.6 12.0263C4.6 12.2739 4.69482 12.5113 4.8636 12.6863C5.03239 12.8613 5.2613 12.9597 5.5 12.9597ZM16.3 3.62634H3.7C2.98392 3.62634 2.29716 3.92134 1.79081 4.44644C1.28446 4.97155 1 5.68374 1 6.42634V14.8263C1 15.5689 1.28446 16.2811 1.79081 16.8062C2.29716 17.3313 2.98392 17.6263 3.7 17.6263H16.3C17.0161 17.6263 17.7028 17.3313 18.2092 16.8062C18.7155 16.2811 19 15.5689 19 14.8263V6.42634C19 5.68374 18.7155 4.97155 18.2092 4.44644C17.7028 3.92134 17.0161 3.62634 16.3 3.62634ZM17.2 14.8263C17.2 15.0739 17.1052 15.3113 16.9364 15.4863C16.7676 15.6613 16.5387 15.7597 16.3 15.7597H3.7C3.46131 15.7597 3.23239 15.6613 3.0636 15.4863C2.89482 15.3113 2.8 15.0739 2.8 14.8263V9.22634H17.2V14.8263ZM17.2 7.35968H2.8V6.42634C2.8 6.17881 2.89482 5.94141 3.0636 5.76638C3.23239 5.59134 3.46131 5.49301 3.7 5.49301H16.3C16.5387 5.49301 16.7676 5.59134 16.9364 5.76638C17.1052 5.94141 17.2 6.17881 17.2 6.42634V7.35968Z" fill="#1D7950"/>
</svg>
