<svg width="20" height="24" viewBox="0 0 20 24" fill="none" xmlns="http://www.w3.org/2000/svg">
<path d="M9.38705 0.0260658C7.77313 0.145248 6.08968 0.919931 4.6148 2.20114C3.96427 2.77222 3.74577 3.19432 3.73584 3.89451C3.73087 4.44573 3.84012 4.71389 4.3814 5.46871L4.79854 6.04475V6.68536C4.79854 7.36569 4.85317 7.59412 5.03691 7.7282C5.21071 7.84738 5.22561 8.04105 5.07663 8.21983C4.85813 8.47805 4.73895 8.76608 4.70916 9.08389C4.67936 9.4613 4.87303 10.6482 5.00711 10.9114C5.13126 11.1596 5.45901 11.4725 5.67254 11.552C5.83642 11.6115 5.85132 11.6364 6.04499 12.2323C6.27342 12.9523 6.47702 13.3149 6.8594 13.6823L7.13252 13.9505V14.601V15.2516L6.66076 15.3906C6.40253 15.4701 6.18403 15.5197 6.1741 15.5098C6.16913 15.4999 6.12941 15.4254 6.08968 15.3409C5.93077 15.038 5.89104 15.043 4.11325 15.6339C2.97108 16.0113 2.4596 16.2001 2.39504 16.2745C2.32552 16.3639 2.31062 16.4335 2.33048 16.6371C2.35531 16.8903 2.35035 16.8953 2.13184 17.1088C1.81403 17.4167 1.49621 17.9183 1.3373 18.3751L1.19825 18.7674L1.18335 21.1511L1.16846 23.5347L1.28267 23.7085C1.35716 23.8178 1.47138 23.9072 1.59056 23.9469C1.7445 23.9965 3.49251 24.0065 10.0574 23.9965C17.9781 23.9816 18.3406 23.9767 18.4747 23.8923C18.7577 23.7036 18.7627 23.6688 18.7428 21.1064L18.7279 18.7674L18.5939 18.395C18.4052 17.8537 18.2264 17.5706 17.8539 17.1833L17.5163 16.8407L17.546 16.6073C17.5659 16.4136 17.556 16.354 17.4716 16.2696C17.3673 16.1653 14.2983 15.1175 14.0947 15.1175C13.9855 15.1175 13.8166 15.2565 13.7124 15.4303C13.6677 15.5048 13.6279 15.4999 13.2307 15.3807L12.7937 15.2466V14.5563V13.8661L13.0668 13.5681C13.3697 13.2404 13.5981 12.8034 13.8315 12.0833C13.9805 11.6314 13.9954 11.6066 14.1841 11.5222C14.4324 11.4129 14.7949 11.0107 14.8694 10.7673C14.9936 10.3353 15.1376 9.32722 15.1078 9.069C15.073 8.78594 14.9389 8.47805 14.7502 8.24962C14.5913 8.06092 14.5963 7.89207 14.7602 7.78779C14.9836 7.63881 15.0283 7.4799 15.0283 6.78468V6.14904L15.4554 5.55809C16.0116 4.79334 16.1357 4.53015 16.1606 4.01866C16.1953 3.33336 16.0016 2.88147 15.4504 2.36005C14.0699 1.06891 12.2325 0.170078 10.7328 0.0459309C10.0376 -0.0086956 9.87867 -0.0136604 9.38705 0.0260658ZM10.8868 1.23775C11.7806 1.39666 12.6943 1.77903 13.5485 2.35011C14.5069 2.99568 15.0283 3.54193 15.0283 3.89451C15.0283 4.07825 14.8595 4.39607 14.5069 4.87776L14.209 5.28L9.95316 5.28497H5.70234L5.37459 4.843C4.96242 4.27192 4.89786 4.14778 4.89786 3.88458C4.89786 3.61146 5.00711 3.43268 5.39942 3.0801C6.45219 2.14155 7.7185 1.49598 9.0146 1.23775C9.47147 1.14836 10.3604 1.14836 10.8868 1.23775ZM13.8862 6.64563V6.85917L13.479 6.94358C12.6745 7.09753 11.7558 7.17698 10.4349 7.20678C8.77127 7.24154 7.24177 7.13726 6.25355 6.91379L5.99036 6.85917V6.64067V6.42713H9.93826H13.8862V6.64563ZM8.84576 8.35887C10.0425 8.4135 11.582 8.36384 12.6596 8.23969C13.0122 8.19996 13.3201 8.1652 13.3449 8.1652C13.3697 8.1652 13.3896 8.24466 13.3896 8.34397C13.3896 8.48798 13.4343 8.56744 13.6627 8.8058C13.8961 9.0541 13.9358 9.11866 13.9358 9.2875C13.9358 9.54572 13.7918 10.3601 13.7322 10.4297C13.7074 10.4595 13.5932 10.4992 13.4839 10.519C13.1462 10.5737 13.042 10.7276 12.749 11.6016C12.4808 12.4111 12.302 12.7438 12.0339 12.9424C11.7459 13.1609 10.7725 13.727 10.559 13.8015C10.2511 13.9108 9.53106 13.9008 9.22814 13.7866C8.93018 13.6724 7.92707 13.0715 7.69367 12.8679C7.45034 12.6494 7.32123 12.3962 7.05803 11.5917C6.78987 10.7773 6.65579 10.5786 6.33301 10.524C6.22873 10.5041 6.11947 10.4595 6.08968 10.4247C6.04995 10.375 5.84138 9.36199 5.84138 9.19314C5.84138 9.17328 5.96553 9.0243 6.11451 8.86043C6.38267 8.56744 6.46709 8.39363 6.42736 8.22479C6.40253 8.14534 6.43729 8.14534 7.0779 8.22479C7.45034 8.26948 8.24489 8.33404 8.84576 8.35887ZM11.6515 15.0579V15.5396L10.7924 15.9716L9.9333 16.3987L9.10399 15.9816L8.27468 15.5594V15.1125C8.27468 14.7699 8.28958 14.6656 8.33924 14.6854C9.11392 15.0132 9.52113 15.0976 10.1121 15.0529C10.6335 15.0132 10.9662 14.9238 11.3238 14.7401C11.4876 14.6557 11.6316 14.5812 11.6416 14.5762C11.6465 14.5712 11.6515 14.7897 11.6515 15.0579ZM5.52853 16.2845L5.58316 16.4533L4.47576 16.8208L3.37332 17.1932L3.3187 17.0145C3.2889 16.9151 3.26904 16.8307 3.27897 16.8208C3.31373 16.786 5.31996 16.1206 5.39942 16.1156C5.44411 16.1107 5.49874 16.1752 5.52853 16.2845ZM15.5547 16.4583L16.6075 16.8109L16.5529 16.9797C16.5231 17.0741 16.4784 17.1535 16.4486 17.1535C16.4188 17.1535 15.9222 16.9946 15.3461 16.8059L14.2934 16.4533L14.348 16.2845C14.3778 16.1901 14.4225 16.1107 14.4523 16.1107C14.4821 16.1107 14.9787 16.2696 15.5547 16.4583ZM8.39883 17.5061C7.99163 17.804 7.65394 18.0374 7.64401 18.0275C7.60428 17.9878 7.38082 16.4434 7.40565 16.4136C7.42551 16.3987 7.50993 16.359 7.59435 16.3292C7.74333 16.2795 7.80292 16.2994 8.44352 16.6172L9.13379 16.9598L8.39883 17.5061ZM12.302 16.3192C12.4858 16.3689 12.4957 16.3838 12.4709 16.5278C12.4609 16.6122 12.4113 16.94 12.3716 17.2528C12.3269 17.5657 12.2822 17.8835 12.2673 17.958L12.2424 18.0871L11.9346 17.8587C11.7657 17.7296 11.428 17.4813 11.1897 17.3075C10.9513 17.1336 10.7676 16.9747 10.7825 16.9598C10.8073 16.935 12.0537 16.2745 12.0935 16.2646C12.1034 16.2596 12.1978 16.2845 12.302 16.3192ZM13.4641 17.0343C13.5137 17.0741 14.2785 17.3422 15.1574 17.6352C16.6571 18.1318 16.7763 18.1666 16.9253 18.107C17.0743 18.0523 17.0941 18.0573 17.1736 18.1566C17.2233 18.2212 17.3226 18.395 17.402 18.544L17.5361 18.8171L17.551 20.8134L17.5659 22.8147H15.0035C13.5981 22.8147 12.4461 22.8047 12.4461 22.7948C12.4461 22.7849 12.5553 21.9853 12.6943 21.022C12.8284 20.0536 13.0271 18.6631 13.1264 17.9232C13.2704 16.9201 13.3201 16.6321 13.3449 16.7811C13.3647 16.8853 13.4144 16.9996 13.4641 17.0343ZM7.02824 19.8351C7.2517 21.3249 7.44537 22.6011 7.46027 22.6806L7.49007 22.8147H4.92766H2.36524V20.9028C2.36524 18.8022 2.37021 18.7426 2.67313 18.2907C2.82211 18.0722 2.83204 18.0623 2.97108 18.1169C3.09523 18.1616 3.30877 18.107 4.72405 17.6352C6.03505 17.1982 6.35287 17.0741 6.43729 16.9698C6.49192 16.9002 6.54158 16.8059 6.54158 16.7612C6.55151 16.642 6.59124 16.8903 7.02824 19.8351ZM10.1915 17.6352C10.3256 17.7345 10.4398 17.8189 10.4498 17.8289C10.4597 17.8338 10.3902 18.0076 10.2908 18.2162C10.122 18.5837 10.1121 18.5936 9.94323 18.5936C9.77439 18.5936 9.76446 18.5837 9.59065 18.2112C9.4963 18.0027 9.43174 17.814 9.4516 17.7941C9.52609 17.7196 9.88861 17.4564 9.9184 17.4515C9.9333 17.4515 10.0574 17.5359 10.1915 17.6352ZM8.86563 18.6681C8.95005 18.8469 9.01957 19.0356 9.01957 19.0803C9.01957 19.1945 8.30448 22.5862 8.29455 22.5366C8.28461 22.5117 8.16543 21.7122 8.02639 20.7637C7.77809 19.1001 7.77313 19.0306 7.86251 18.9661C7.91217 18.9313 8.12074 18.7774 8.32434 18.6234C8.52794 18.4744 8.70175 18.3503 8.70175 18.3453C8.70672 18.3453 8.78121 18.4893 8.86563 18.6681ZM12.0438 19.0157C12.0984 19.0704 12.0686 19.3534 11.87 20.7985C11.7359 21.742 11.6167 22.5167 11.6018 22.5167C11.5869 22.5167 11.4131 21.742 11.2095 20.7985L10.847 19.0803L11.0059 18.7178L11.1648 18.3553L11.5721 18.6532C11.7906 18.8171 12.0041 18.981 12.0438 19.0157ZM10.0624 19.4577C10.0624 19.4676 10.2164 20.2075 10.41 21.1064C10.5987 22.0052 10.7576 22.7551 10.7576 22.7749C10.7576 22.7998 10.3902 22.8147 9.93826 22.8147H9.11889L9.14372 22.7054C9.15862 22.6408 9.24304 22.2336 9.33242 21.7966C9.86378 19.274 9.82405 19.4378 9.9482 19.4378C10.0128 19.4378 10.0624 19.4478 10.0624 19.4577Z" fill="#6B7772"/>
<path d="M8.07609 2.65316C7.51494 2.86173 7.38086 2.97098 7.38086 3.21927C7.38086 3.62648 7.66888 3.72083 8.24989 3.50233L8.64717 3.35832L9.22321 3.92443C9.99293 4.68422 9.9532 4.68422 10.713 3.91947L11.2791 3.34839L11.6913 3.49736C11.9147 3.57682 12.1481 3.64634 12.2028 3.64634C12.3567 3.64634 12.5951 3.38315 12.5951 3.20934C12.5951 2.97098 12.456 2.86669 11.875 2.65316C11.0705 2.36514 11.0904 2.36017 10.4846 2.95111L9.97803 3.4477L9.48144 2.95111C9.01961 2.48928 8.96995 2.45452 8.79118 2.45949C8.6869 2.45949 8.36411 2.54887 8.07609 2.65316Z" fill="#6B7772"/>
<path d="M14.7099 19.0951C14.3474 19.5221 14.7993 20.128 15.2909 19.8797C15.6038 19.7208 15.6733 19.3285 15.43 19.0851C15.3108 18.9709 15.2413 18.9411 15.0625 18.9411C14.8738 18.9411 14.8192 18.966 14.7099 19.0951Z" fill="#6B7772"/>
<path d="M13.653 19.7955C13.514 19.8601 13.4196 20.0935 13.4593 20.2623C13.4792 20.3368 13.7871 20.6894 14.1744 21.0817C14.815 21.7273 14.8697 21.772 15.0484 21.772C15.1477 21.772 15.2769 21.7521 15.3265 21.7223C15.3762 21.6975 15.7089 21.3648 16.0664 20.9824C16.7865 20.2127 16.8262 20.1332 16.573 19.88C16.4736 19.7806 16.3793 19.7359 16.2651 19.7359C16.131 19.7359 16.0317 19.8104 15.5947 20.2425L15.0782 20.749L14.5618 20.2425C14.0255 19.7111 13.9261 19.6615 13.653 19.7955Z" fill="#6B7772"/>
</svg>
