<svg width="24" height="20" viewBox="0 0 24 20" fill="none" xmlns="http://www.w3.org/2000/svg">
<path d="M3.27247 1.10625C2.39981 1.56985 2.08165 2.06072 2.01802 3.04246C1.98166 3.67878 1.96348 3.71514 1.75441 3.71514C1.19991 3.71514 0.436329 4.26055 0.172714 4.85141C0.0272706 5.15139 0 5.46045 0 6.68763C0 8.05116 0.0181804 8.18751 0.181804 8.35113C0.372698 8.54203 0.809027 8.58748 1.09082 8.44204C1.36353 8.29659 1.45443 7.84208 1.45443 6.624C1.45443 5.62408 1.47261 5.45136 1.61805 5.3241C1.70896 5.2332 1.83622 5.16957 1.89076 5.16957C1.97257 5.16957 1.99984 6.624 1.99984 11.0782C1.99984 17.5504 1.98166 17.3686 2.53616 17.8322C2.82705 18.0776 2.83614 18.0776 4.27239 18.0776C5.70864 18.0776 5.71773 18.0776 6.00862 17.8322C6.39949 17.4959 6.54494 17.105 6.54494 16.3505V15.7142H8.54478H10.5446V16.2778C10.5446 17.0959 10.681 17.4777 11.0719 17.8049L11.4082 18.0776H12.8353C14.2352 18.0776 14.2625 18.0776 14.5443 17.8413C14.9715 17.4777 15.0897 17.1686 15.0897 16.396V15.7142H16.5896H18.0895V16.3505C18.0895 17.105 18.2349 17.4959 18.6258 17.8322C18.9167 18.0776 18.9258 18.0776 20.362 18.0776C21.7983 18.0776 21.8074 18.0776 22.0983 17.8322C22.6164 17.3868 22.6346 17.2868 22.6346 13.9871C22.6346 11.2055 22.6437 10.9782 22.7982 10.9237C23.1254 10.8055 23.2709 10.5964 23.2709 10.2419C23.2709 9.82374 23.0164 9.53286 22.6618 9.53286C22.4164 9.53286 22.371 9.45105 21.5892 7.56029C20.8347 5.74225 20.7529 5.58772 20.4802 5.46954C20.2529 5.37864 19.453 5.35137 16.9532 5.35137H13.7262V3.95148C13.7262 2.60613 13.7171 2.53341 13.4808 2.0789C13.3262 1.79711 13.0717 1.48804 12.8353 1.31533L12.4354 1.03353L7.9721 1.00626C4.40874 0.988079 3.45427 1.00626 3.27247 1.10625ZM12.09 2.64249C12.2172 2.78794 12.2718 2.96065 12.2718 3.27881V3.71514H7.86301H3.45427V3.31517C3.45427 3.05155 3.5179 2.84248 3.64517 2.67885L3.82697 2.44251H7.86301C11.8991 2.44251 11.8991 2.44251 12.09 2.64249ZM12.2718 5.55136C12.2718 5.83315 12.0627 6.44219 11.5264 7.733L10.781 9.53286H7.11762H3.45427V7.35121V5.16957H7.86301H12.2718V5.55136ZM20.2439 8.16933L20.7984 9.53286H16.5896H12.3717L12.6899 8.77837C12.8717 8.36931 13.099 7.83299 13.1899 7.58756C13.5353 6.7149 13.1535 6.8058 16.6169 6.8058H19.6894L20.2439 8.16933ZM10.5446 12.6235V14.2598H6.99945H3.45427V12.6235V10.9873H6.99945H10.5446V12.6235ZM21.1801 12.6235V14.2598H16.5896H11.9991V12.6235V10.9873H16.5896H21.1801V12.6235ZM5.09051 16.2141V16.7141H4.27239H3.45427V16.2141V15.7142H4.27239H5.09051V16.2141ZM13.6353 16.2141V16.7141H12.8172H11.9991V16.2141V15.7142H12.8172H13.6353V16.2141ZM21.1801 16.2141V16.7141H20.362H19.5439V16.2141V15.7142H20.362H21.1801V16.2141Z" fill="#6B7772"/>
<path d="M4.70911 12.0239C4.46367 12.2057 4.35459 12.5875 4.46367 12.8693C4.59093 13.2147 4.8091 13.342 5.28179 13.3511C5.86356 13.3511 6.18172 13.0965 6.18172 12.6239C6.18172 12.3512 6.12717 12.233 5.94537 12.0875C5.66358 11.8694 4.95454 11.833 4.70911 12.0239Z" fill="#6B7772"/>
<path d="M7.41751 12.0875C7.09935 12.333 7.09026 12.8693 7.39024 13.1511C7.57204 13.3238 7.7084 13.3511 8.39925 13.3511C9.11738 13.3511 9.20828 13.3329 9.40826 13.1238C9.55371 12.9875 9.63552 12.7966 9.63552 12.6239C9.63552 12.4511 9.55371 12.2603 9.40826 12.1239C9.20828 11.9148 9.11738 11.8966 8.42652 11.8966C7.79021 11.8966 7.61749 11.9239 7.41751 12.0875Z" fill="#6B7772"/>
<path d="M13.2354 12.0875C13.0536 12.233 12.999 12.3512 12.999 12.6148C12.999 13.0965 13.2899 13.3511 13.8353 13.3511C14.408 13.3511 14.7262 13.0965 14.7262 12.6239C14.7262 12.1603 14.408 11.8966 13.8626 11.8966C13.6081 11.8966 13.399 11.9603 13.2354 12.0875Z" fill="#6B7772"/>
<path d="M15.5896 12.1239C15.4441 12.2603 15.3623 12.4511 15.3623 12.6239C15.3623 12.7966 15.4441 12.9875 15.5896 13.1238C15.7895 13.3329 15.8804 13.3511 16.5895 13.3511C17.2985 13.3511 17.3894 13.3329 17.5894 13.1238C17.9076 12.8148 17.8985 12.3421 17.5803 12.0875C17.3803 11.9239 17.2076 11.8966 16.5713 11.8966C15.8804 11.8966 15.7895 11.9148 15.5896 12.1239Z" fill="#6B7772"/>
<path d="M18.6895 12.0875C18.5077 12.233 18.4531 12.3512 18.4531 12.6239C18.4531 13.0875 18.7713 13.3511 19.3349 13.3511C19.8439 13.3511 20.0439 13.242 20.1621 12.8966C20.2803 12.5693 20.153 12.1148 19.9076 11.9875C19.6076 11.8239 18.9531 11.8785 18.6895 12.0875Z" fill="#6B7772"/>
</svg>
