<svg width="18" height="18" viewBox="0 0 18 18" fill="none" xmlns="http://www.w3.org/2000/svg">
<path d="M3.75 8.2625H5.25C6.19313 8.2625 6.9538 8.00279 7.4783 7.4783C8.00279 6.9538 8.2625 6.19313 8.2625 5.25V3.75C8.2625 2.80687 8.00279 2.0462 7.4783 1.5217C6.9538 0.997207 6.19313 0.7375 5.25 0.7375H3.75C2.80687 0.7375 2.0462 0.997207 1.5217 1.5217C0.997207 2.0462 0.7375 2.80687 0.7375 3.75V5.25C0.7375 6.19313 0.997207 6.9538 1.5217 7.4783C2.0462 8.00279 2.80687 8.2625 3.75 8.2625ZM2.2625 3.75C2.2625 3.18009 2.38416 2.82243 2.6033 2.6033C2.82243 2.38416 3.18009 2.2625 3.75 2.2625H5.25C5.81991 2.2625 6.17757 2.38416 6.3967 2.6033C6.61584 2.82243 6.7375 3.18009 6.7375 3.75V5.25C6.7375 5.81991 6.61584 6.17757 6.3967 6.3967C6.17757 6.61584 5.81991 6.7375 5.25 6.7375H3.75C3.18009 6.7375 2.82243 6.61584 2.6033 6.3967C2.38416 6.17757 2.2625 5.81991 2.2625 5.25V3.75Z" fill="#1D7950" stroke="#1D7950" stroke-width="0.4"/>
<path d="M12.75 8.2625H14.25C15.1931 8.2625 15.9538 8.00279 16.4783 7.4783C17.0028 6.9538 17.2625 6.19313 17.2625 5.25V3.75C17.2625 2.80687 17.0028 2.0462 16.4783 1.5217C15.9538 0.997207 15.1931 0.7375 14.25 0.7375H12.75C11.8069 0.7375 11.0462 0.997207 10.5217 1.5217C9.99721 2.0462 9.7375 2.80687 9.7375 3.75V5.25C9.7375 6.19313 9.99721 6.9538 10.5217 7.4783C11.0462 8.00279 11.8069 8.2625 12.75 8.2625ZM11.2625 3.75C11.2625 3.18009 11.3842 2.82243 11.6033 2.6033C11.8224 2.38416 12.1801 2.2625 12.75 2.2625H14.25C14.8199 2.2625 15.1776 2.38416 15.3967 2.6033C15.6158 2.82243 15.7375 3.18009 15.7375 3.75V5.25C15.7375 5.81991 15.6158 6.17757 15.3967 6.3967C15.1776 6.61584 14.8199 6.7375 14.25 6.7375H12.75C12.1801 6.7375 11.8224 6.61584 11.6033 6.3967C11.3842 6.17757 11.2625 5.81991 11.2625 5.25V3.75Z" fill="#1D7950" stroke="#1D7950" stroke-width="0.4"/>
<path d="M12.75 17.2625H14.25C15.1931 17.2625 15.9538 17.0028 16.4783 16.4783C17.0028 15.9538 17.2625 15.1931 17.2625 14.25V12.75C17.2625 11.8069 17.0028 11.0462 16.4783 10.5217C15.9538 9.99721 15.1931 9.7375 14.25 9.7375H12.75C11.8069 9.7375 11.0462 9.99721 10.5217 10.5217C9.99721 11.0462 9.7375 11.8069 9.7375 12.75V14.25C9.7375 15.1931 9.99721 15.9538 10.5217 16.4783C11.0462 17.0028 11.8069 17.2625 12.75 17.2625ZM11.2625 12.75C11.2625 12.1801 11.3842 11.8224 11.6033 11.6033C11.8224 11.3842 12.1801 11.2625 12.75 11.2625H14.25C14.8199 11.2625 15.1776 11.3842 15.3967 11.6033C15.6158 11.8224 15.7375 12.1801 15.7375 12.75V14.25C15.7375 14.8199 15.6158 15.1776 15.3967 15.3967C15.1776 15.6158 14.8199 15.7375 14.25 15.7375H12.75C12.1801 15.7375 11.8224 15.6158 11.6033 15.3967C11.3842 15.1776 11.2625 14.8199 11.2625 14.25V12.75Z" fill="#1D7950" stroke="#1D7950" stroke-width="0.4"/>
<path d="M3.75 17.2625H5.25C6.19313 17.2625 6.9538 17.0028 7.4783 16.4783C8.00279 15.9538 8.2625 15.1931 8.2625 14.25V12.75C8.2625 11.8069 8.00279 11.0462 7.4783 10.5217C6.9538 9.99721 6.19313 9.7375 5.25 9.7375H3.75C2.80687 9.7375 2.0462 9.99721 1.5217 10.5217C0.997207 11.0462 0.7375 11.8069 0.7375 12.75V14.25C0.7375 15.1931 0.997207 15.9538 1.5217 16.4783C2.0462 17.0028 2.80687 17.2625 3.75 17.2625ZM2.2625 12.75C2.2625 12.1801 2.38416 11.8224 2.6033 11.6033C2.82243 11.3842 3.18009 11.2625 3.75 11.2625H5.25C5.81991 11.2625 6.17757 11.3842 6.3967 11.6033C6.61584 11.8224 6.7375 12.1801 6.7375 12.75V14.25C6.7375 14.8199 6.61584 15.1776 6.3967 15.3967C6.17757 15.6158 5.81991 15.7375 5.25 15.7375H3.75C3.18009 15.7375 2.82243 15.6158 2.6033 15.3967C2.38416 15.1776 2.2625 14.8199 2.2625 14.25V12.75Z" fill="#1D7950" stroke="#1D7950" stroke-width="0.4"/>
</svg>
