<svg width="20" height="20" viewBox="0 0 20 20" fill="none" xmlns="http://www.w3.org/2000/svg">
<path d="M6.70752 13.39H10.0016M6.70752 9.02539H13.2958" stroke="#1D7950" stroke-width="1.8" stroke-linecap="round"/>
<path d="M6.29733 2.47852C5.01609 2.51926 4.25219 2.67041 3.72362 3.23121C3 3.99893 3 5.23456 3 7.70583L3 13.385C3 15.8563 3 17.0919 3.72362 17.8597C4.44724 18.6274 5.61188 18.6274 7.94118 18.6274L12.0588 18.6274C14.3881 18.6274 15.5528 18.6274 16.2764 17.8597C17 17.0919 17 15.8563 17 13.385V7.70583C17 5.23456 17 3.99893 16.2764 3.23121C15.7478 2.67041 14.9839 2.51926 13.7027 2.47852" stroke="#1D7950" stroke-width="1.8"/>
<path d="M6.29395 2.69654C6.29395 1.85287 6.93918 1.16895 7.73512 1.16895H12.2645C13.0605 1.16895 13.7057 1.85287 13.7057 2.69654C13.7057 3.54021 13.0605 4.22414 12.2645 4.22414H7.73512C6.93918 4.22414 6.29395 3.54021 6.29395 2.69654Z" stroke="#1D7950" stroke-width="1.8" stroke-linejoin="round"/>
</svg>
