<svg width="20" height="20" viewBox="0 0 20 20" fill="none" xmlns="http://www.w3.org/2000/svg">
<path d="M6.70752 13.389H10.0016M6.70752 9.02441H13.2958" stroke="#6B7772" stroke-width="1.8" stroke-linecap="round"/>
<path d="M6.29733 2.47803C5.01609 2.51877 4.25219 2.66993 3.72362 3.23072C3 3.99844 3 5.23408 3 7.70534L3 13.3846C3 15.8558 3 17.0915 3.72362 17.8592C4.44724 18.6269 5.61188 18.6269 7.94118 18.6269L12.0588 18.6269C14.3881 18.6269 15.5528 18.6269 16.2764 17.8592C17 17.0915 17 15.8558 17 13.3846V7.70534C17 5.23408 17 3.99844 16.2764 3.23072C15.7478 2.66993 14.9839 2.51877 13.7027 2.47803" stroke="#6B7772" stroke-width="1.8"/>
<path d="M6.29395 2.69605C6.29395 1.85239 6.93918 1.16846 7.73512 1.16846H12.2645C13.0605 1.16846 13.7057 1.85239 13.7057 2.69605C13.7057 3.53972 13.0605 4.22365 12.2645 4.22365H7.73512C6.93918 4.22365 6.29395 3.53972 6.29395 2.69605Z" stroke="#6B7772" stroke-width="1.8" stroke-linejoin="round"/>
</svg>
