<svg width="20" height="20" viewBox="0 0 20 20" fill="none" xmlns="http://www.w3.org/2000/svg">
<path d="M8.83333 6.1H13.8333C14.0543 6.1 14.2663 6.01045 14.4226 5.85104C14.5789 5.69163 14.6667 5.47543 14.6667 5.25C14.6667 5.02457 14.5789 4.80836 14.4226 4.64896C14.2663 4.48955 14.0543 4.4 13.8333 4.4H8.83333C8.61232 4.4 8.40036 4.48955 8.24408 4.64896C8.0878 4.80836 8 5.02457 8 5.25C8 5.47543 8.0878 5.69163 8.24408 5.85104C8.40036 6.01045 8.61232 6.1 8.83333 6.1ZM7.16667 9.5H13.8333C14.0543 9.5 14.2663 9.41045 14.4226 9.25104C14.5789 9.09163 14.6667 8.87543 14.6667 8.65C14.6667 8.42457 14.5789 8.20836 14.4226 8.04896C14.2663 7.88955 14.0543 7.8 13.8333 7.8H7.16667C6.94565 7.8 6.73369 7.88955 6.57741 8.04896C6.42113 8.20836 6.33333 8.42457 6.33333 8.65C6.33333 8.87543 6.42113 9.09163 6.57741 9.25104C6.73369 9.41045 6.94565 9.5 7.16667 9.5ZM7.16667 12.9H13.8333C14.0543 12.9 14.2663 12.8104 14.4226 12.651C14.5789 12.4916 14.6667 12.2754 14.6667 12.05C14.6667 11.8246 14.5789 11.6084 14.4226 11.449C14.2663 11.2896 14.0543 11.2 13.8333 11.2H7.16667C6.94565 11.2 6.73369 11.2896 6.57741 11.449C6.42113 11.6084 6.33333 11.8246 6.33333 12.05C6.33333 12.2754 6.42113 12.4916 6.57741 12.651C6.73369 12.8104 6.94565 12.9 7.16667 12.9ZM17.1667 1H3.83333C3.61232 1 3.40036 1.08955 3.24408 1.24896C3.0878 1.40837 3 1.62457 3 1.85V17.15C3 17.3079 3.0431 17.4626 3.12446 17.5969C3.20582 17.7311 3.32223 17.8397 3.46066 17.9103C3.59908 17.9809 3.75404 18.0107 3.90817 17.9966C4.06231 17.9824 4.20953 17.9247 4.33333 17.83L6.05833 16.5125L7.775 17.83C7.91925 17.9403 8.09469 18 8.275 18C8.45531 18 8.63075 17.9403 8.775 17.83L10.5 16.5125L12.225 17.83C12.3692 17.9403 12.5447 18 12.725 18C12.9053 18 13.0808 17.9403 13.225 17.83L14.9417 16.5125L16.6667 17.83C16.7911 17.9246 16.9389 17.9818 17.0935 17.9954C17.2481 18.0089 17.4033 17.9781 17.5417 17.9065C17.6791 17.8359 17.7947 17.7278 17.8756 17.5943C17.9565 17.4607 17.9995 17.307 18 17.15V1.85C18 1.62457 17.9122 1.40837 17.7559 1.24896C17.5996 1.08955 17.3877 1 17.1667 1ZM16.3333 15.45L15.4417 14.77C15.2974 14.6596 15.122 14.6 14.9417 14.6C14.7614 14.6 14.5859 14.6596 14.4417 14.77L12.725 16.0875L11 14.77C10.8558 14.6596 10.6803 14.6 10.5 14.6C10.3197 14.6 10.1442 14.6596 10 14.77L8.275 16.0875L6.55833 14.77C6.41409 14.6596 6.23864 14.6 6.05833 14.6C5.87802 14.6 5.70258 14.6596 5.55833 14.77L4.66667 15.45V2.7H16.3333V15.45Z" fill="#1D7950"/>
</svg>
