<svg width="22" height="20" viewBox="0 0 22 20" fill="none" xmlns="http://www.w3.org/2000/svg">
<path d="M11 12.75C12.5188 12.75 13.75 11.5188 13.75 10C13.75 8.48122 12.5188 7.25 11 7.25C9.48122 7.25 8.25 8.48122 8.25 10C8.25 11.5188 9.48122 12.75 11 12.75Z" stroke="#6B7772" stroke-width="1.8" stroke-miterlimit="10" stroke-linecap="round" stroke-linejoin="round"/>
<path d="M1.8335 10.8066V9.19332C1.8335 8.23998 2.61266 7.45165 3.57516 7.45165C5.23433 7.45165 5.91266 6.27832 5.0785 4.83915C4.60183 4.01415 4.886 2.94165 5.72016 2.46498L7.306 1.55748C8.03016 1.12665 8.96516 1.38332 9.396 2.10748L9.49683 2.28165C10.3218 3.72082 11.6785 3.72082 12.5127 2.28165L12.6135 2.10748C13.0443 1.38332 13.9793 1.12665 14.7035 1.55748L16.2893 2.46498C17.1235 2.94165 17.4077 4.01415 16.931 4.83915C16.0968 6.27832 16.7752 7.45165 18.4343 7.45165C19.3877 7.45165 20.176 8.23082 20.176 9.19332V10.8066C20.176 11.76 19.3968 12.5483 18.4343 12.5483C16.7752 12.5483 16.0968 13.7216 16.931 15.1608C17.4077 15.995 17.1235 17.0583 16.2893 17.535L14.7035 18.4425C13.9793 18.8733 13.0443 18.6166 12.6135 17.8925L12.5127 17.7183C11.6877 16.2791 10.331 16.2791 9.49683 17.7183L9.396 17.8925C8.96516 18.6166 8.03016 18.8733 7.306 18.4425L5.72016 17.535C4.886 17.0583 4.60183 15.9858 5.0785 15.1608C5.91266 13.7216 5.23433 12.5483 3.57516 12.5483C2.61266 12.5483 1.8335 11.76 1.8335 10.8066Z" stroke="#6B7772" stroke-width="1.8" stroke-miterlimit="10" stroke-linecap="round" stroke-linejoin="round"/>
</svg>
