<svg width="20" height="20" viewBox="0 0 20 20" fill="none" xmlns="http://www.w3.org/2000/svg">
<path d="M1.34626 1.0909C1.11254 1.22507 1 1.41985 1 1.67956C1 1.95224 1.12119 2.14702 1.38522 2.28553L1.57566 2.38508H6.80424H12.0328L12.0458 9.21092L12.0588 16.0411L12.154 16.3874C12.206 16.5778 12.3488 16.9241 12.4657 17.1535L12.6821 17.5777L10.9854 17.5863C7.76513 17.6036 4.23324 17.5733 4.00817 17.5257C3.22907 17.3612 2.53654 16.5865 2.42834 15.7554C2.4067 15.565 2.38505 13.1368 2.38505 9.82555V4.21598L2.2855 4.06882C2.16864 3.89135 1.94357 3.77016 1.73581 3.77016C1.52372 3.77016 1.21641 3.93464 1.09955 4.1121L1 4.25926V10.1329C1 15.8809 1 16.0151 1.08657 16.3484C1.38089 17.4954 2.23789 18.4217 3.40653 18.8459L3.79175 18.9844L9.82972 18.9974C13.9979 19.006 15.9499 18.993 16.1404 18.9627C17.3133 18.7636 18.4171 17.7941 18.8499 16.5908L18.9841 16.2142L18.9971 12.3187L19.0057 8.42316L18.9105 8.25435C18.8542 8.15913 18.7417 8.04226 18.6594 7.99465C18.5123 7.90808 18.443 7.90375 16.9281 7.90375C15.4219 7.90375 15.3396 7.90808 15.1968 7.99032C15.0107 8.09853 14.8505 8.39719 14.8505 8.63958C14.8505 8.89928 14.9717 9.09838 15.1968 9.21092C15.3786 9.30614 15.4349 9.31047 16.4823 9.31047H17.5774V12.5697C17.5774 15.4265 17.5687 15.8593 17.5081 16.0671C17.309 16.7466 16.768 17.292 16.0884 17.4998C15.6383 17.6383 15.1449 17.5993 14.712 17.3915C14.0715 17.0799 13.604 16.4566 13.5088 15.7814C13.4828 15.5909 13.4655 12.8381 13.4655 8.49241V1.51075L13.3746 1.34627C13.3227 1.25537 13.2101 1.14284 13.1192 1.0909L12.9548 1H7.22842C1.53238 1 1.49775 1.00433 1.34626 1.0909Z" fill="#1D7950"/>
<path d="M4.15957 5.18526C4.06002 5.22421 3.89987 5.38004 3.83062 5.50989C3.68345 5.79556 3.81763 6.24138 4.11196 6.44049L4.25912 6.54004H7.24997H10.2408L10.3966 6.43616C10.6866 6.23705 10.7732 5.86914 10.6087 5.51422C10.5611 5.40601 10.4659 5.29347 10.3837 5.24153C10.2452 5.15929 10.1759 5.15496 7.23266 5.15929C5.57925 5.15929 4.19419 5.17227 4.15957 5.18526Z" fill="#1D7950"/>
<path d="M4.26776 7.92971C4.07732 7.97733 3.92583 8.09852 3.82628 8.28897C3.72673 8.47942 3.77001 8.83434 3.91717 9.02479C4.14657 9.32345 3.96478 9.31046 7.26727 9.31046H10.2495L10.3966 9.21091C10.5741 9.09405 10.6953 8.86897 10.6953 8.66121C10.6953 8.47942 10.5698 8.19374 10.4442 8.08553C10.2235 7.88643 10.1802 7.88643 7.23265 7.88643C5.67446 7.89076 4.36299 7.90807 4.26776 7.92971Z" fill="#1D7950"/>
<path d="M4.31963 10.6955C3.86083 10.7821 3.64442 11.2582 3.85217 11.717C3.89979 11.8209 3.99501 11.9334 4.08157 11.9853C4.23306 12.0806 4.23739 12.0806 7.24123 12.0806H10.2494L10.3966 11.981C10.89 11.6521 10.7385 10.86 10.1542 10.6998C9.95507 10.6479 4.59664 10.6392 4.31963 10.6955Z" fill="#1D7950"/>
<path d="M5.68738 13.4612C5.21992 13.578 5.02948 14.0195 5.25455 14.461C5.30649 14.5692 5.4147 14.6991 5.49693 14.751C5.64409 14.8506 5.65708 14.8506 7.24989 14.8506H8.85569L9.01584 14.7424C9.32315 14.5346 9.38374 14.1104 9.15434 13.7598C8.95091 13.4439 8.94659 13.4439 7.2975 13.4352C6.48811 13.4309 5.76096 13.4439 5.68738 13.4612Z" fill="#1D7950"/>
</svg>
