<svg width="20" height="20" viewBox="0 0 20 20" fill="none" xmlns="http://www.w3.org/2000/svg">
<g clip-path="url(#clip0_515_21376)">
<path d="M1.29665 1.00407L1.29648 1.00417C1.16725 1.07836 1.06682 1.17214 0.999192 1.28762C0.931508 1.4032 0.9 1.53484 0.9 1.67956C0.9 1.83131 0.93394 1.96749 1.00908 2.08631C1.08394 2.20467 1.19524 2.29879 1.33876 2.37408L1.33889 2.37415L1.52934 2.4737L1.5511 2.48508H1.57566H6.80424H11.933L11.9458 9.21111L11.9588 16.0413L11.9588 16.0547L11.9624 16.0676L12.0575 16.4137C12.1119 16.613 12.2579 16.9659 12.3766 17.1989L12.3766 17.1989L12.5192 17.4785L10.9849 17.4863L10.9848 17.4863C9.37516 17.495 7.68759 17.4917 6.37444 17.4804C5.71783 17.4747 5.15512 17.467 4.7427 17.4577C4.53643 17.4531 4.3682 17.4481 4.2448 17.4428C4.11652 17.4373 4.04687 17.4317 4.02886 17.4279L4.02882 17.4279C3.29428 17.2728 2.63109 16.5348 2.52762 15.7434C2.52293 15.7006 2.51753 15.5202 2.51243 15.2125C2.50737 14.9068 2.50263 14.4822 2.49858 13.96C2.49046 12.9155 2.48505 11.481 2.48505 9.82555V4.21598V4.18533L2.46788 4.15995L2.36902 4.01382C2.3689 4.01364 2.36879 4.01346 2.36867 4.01328C2.23341 3.80832 1.97735 3.67016 1.73581 3.67016C1.60752 3.67016 1.46109 3.71863 1.33468 3.78647C1.20851 3.85419 1.08723 3.94929 1.01639 4.05656C1.01627 4.05674 1.01615 4.05692 1.01603 4.0571L0.917171 4.20323L0.9 4.22862V4.25926V10.1329V10.135C0.9 13.0071 0.9 14.4781 0.91083 15.2725C0.92164 16.0655 0.943079 16.1937 0.98974 16.3734C1.29272 17.554 2.17436 18.505 3.37241 18.9399L3.3727 18.94L3.75792 19.0785L3.77421 19.0843L3.79154 19.0844L9.82951 19.0974L9.82952 19.0974C11.9137 19.1017 13.444 19.1006 14.4773 19.0947C14.9938 19.0917 15.3865 19.0875 15.6621 19.0821C15.933 19.0769 16.0998 19.0705 16.1561 19.0615L16.1571 19.0613L16.1571 19.0613C17.3691 18.8556 18.5002 17.8585 18.944 16.6246L18.9441 16.6244L19.0783 16.2478L19.084 16.2317L19.0841 16.2146L19.0971 12.319V12.3189L19.1057 8.42338L19.1058 8.397L19.0928 8.37403L18.9976 8.20522L18.9966 8.20347C18.9635 8.14741 18.9159 8.08823 18.8666 8.03719C18.818 7.98678 18.7621 7.93857 18.7099 7.90828C18.6688 7.88412 18.6275 7.8626 18.5639 7.84685C18.5036 7.83194 18.4262 7.82292 18.312 7.81688C18.0835 7.8048 17.684 7.80375 16.9281 7.80375C16.1765 7.80375 15.7761 7.8048 15.5462 7.81632C15.4313 7.82208 15.3533 7.83066 15.2931 7.84471C15.2292 7.85961 15.188 7.88003 15.1469 7.90366L15.1465 7.90387C15.0322 7.97036 14.9343 8.08899 14.8657 8.21751C14.7966 8.34683 14.7505 8.49824 14.7505 8.63958C14.7505 8.93552 14.8917 9.16979 15.1512 9.29992C15.1515 9.30007 15.1518 9.30022 15.1521 9.30036L15.1968 9.21092M1.29665 1.00407L16.4823 9.31047C15.4349 9.31047 15.3786 9.30614 15.1968 9.21092M1.29665 1.00407C1.317 0.992443 1.34164 0.978521 1.37873 0.966791C1.41406 0.955616 1.45729 0.947422 1.51724 0.940781C1.63618 0.927605 1.83727 0.918941 2.20653 0.912998C2.94716 0.901079 4.38093 0.9 7.22842 0.9H12.9548H12.9805L13.0031 0.912476L13.1676 1.00336L13.1688 1.00407C13.2752 1.06487 13.4006 1.19026 13.4614 1.29665L13.4621 1.2979L13.553 1.46238L13.5655 1.48495V1.51075V8.49241C13.5655 10.6652 13.5698 12.4396 13.5774 13.6945C13.5812 14.322 13.5858 14.8194 13.591 15.1718C13.5937 15.348 13.5965 15.4876 13.5994 15.5889C13.6024 15.6928 13.6055 15.7502 13.6078 15.7677C13.6982 16.4078 14.1432 17.0035 14.7555 17.3015C15.1661 17.4985 15.6335 17.5351 16.059 17.4042L16.0592 17.4041C16.7068 17.2061 17.2226 16.686 17.4122 16.0389L17.5081 16.0671M1.29665 1.00407L17.5081 16.0671M15.1968 9.21092C14.9717 9.09838 14.8505 8.89928 14.8505 8.63958C14.8505 8.39719 15.0107 8.09853 15.1968 7.99032C15.3396 7.90808 15.4219 7.90375 16.9281 7.90375C18.443 7.90375 18.5123 7.90808 18.6594 7.99465C18.7417 8.04226 18.8542 8.15913 18.9105 8.25435M15.1968 9.21092L18.9105 8.25435M17.5081 16.0671C17.309 16.7466 16.768 17.292 16.0884 17.4998L17.5081 16.0671ZM17.5081 16.0671L17.4121 16.0391C17.438 15.9503 17.4557 15.8042 17.4655 15.3098C17.4752 14.8197 17.4774 13.9985 17.4774 12.5697V9.41047L17.5081 16.0671ZM18.9105 8.25435L19.0057 8.42316L18.9971 12.3187M18.9105 8.25435L18.9971 12.3187M18.9971 12.3187L18.9841 16.2142L18.8499 16.5908C18.4171 17.7941 17.3133 18.7636 16.1404 18.9627C15.9499 18.993 13.9979 19.006 9.82972 18.9974M18.9971 12.3187L9.82972 18.9974M9.82972 18.9974L3.79175 18.9844L3.40653 18.8459L9.82972 18.9974Z" fill="#6B7772" stroke="#6B7772" stroke-width="0.2"/>
<path d="M4.12312 5.09213L4.12313 5.09213C4.05439 5.11903 3.97787 5.17907 3.91365 5.24215C3.84774 5.30689 3.78319 5.38631 3.74238 5.46283L3.74171 5.46409L3.74172 5.46409C3.65317 5.63599 3.65276 5.84695 3.71 6.03655C3.76744 6.22685 3.88671 6.40885 4.05592 6.52331L4.20309 6.62287L4.22847 6.64004H4.25912H7.24997H10.2408H10.2711L10.2963 6.62324L10.4521 6.51936L10.4532 6.51861L10.4532 6.5186C10.7888 6.28819 10.8813 5.8655 10.6999 5.47305C10.6451 5.34917 10.5379 5.22066 10.4371 5.15698L10.4347 5.15551L10.4347 5.15554C10.3912 5.12971 10.3492 5.10896 10.2631 5.09472C10.1837 5.08157 10.0639 5.07339 9.86262 5.06798L4.12312 5.09213ZM4.12312 5.09213L4.12445 5.09163C4.13871 5.08628 4.15349 5.08486 4.15558 5.08466C4.15569 5.08465 4.15577 5.08465 4.15581 5.08464C4.16164 5.084 4.1683 5.08348 4.17514 5.08304C4.18903 5.08214 4.20761 5.08129 4.23014 5.08048C4.27542 5.07885 4.33949 5.07727 4.41994 5.07574C4.58099 5.07269 4.80943 5.06984 5.08819 5.06741C5.6458 5.06254 6.40568 5.05929 7.23259 5.05929L4.12312 5.09213Z" fill="#6B7772" stroke="#6B7772" stroke-width="0.2"/>
<path d="M10.5104 8.01057C10.5892 8.07886 10.659 8.1925 10.7085 8.30572C10.7585 8.42015 10.7953 8.5513 10.7953 8.66121C10.7953 8.90275 10.6571 9.15881 10.4522 9.29407L10.3055 9.39329L10.2801 9.41046H10.2495H7.26727C7.12723 9.41046 6.9934 9.41049 6.8655 9.41051C5.4888 9.41076 4.79875 9.41089 4.43124 9.37926C4.23154 9.36207 4.10907 9.3346 4.02089 9.28078C3.94891 9.23684 3.90406 9.17558 3.86365 9.12038C3.85493 9.10846 3.84641 9.09683 3.83787 9.08571L3.91717 9.02479L3.83804 9.08594C3.75053 8.97268 3.69824 8.81776 3.67996 8.66909C3.66181 8.52155 3.67503 8.36245 3.73765 8.24264C3.84948 8.02871 4.02341 7.88772 4.24351 7.8327L4.2435 7.83268L4.2456 7.8322C4.26776 7.82716 4.30865 7.82433 4.35328 7.82196C4.40245 7.81934 4.46848 7.81685 4.54913 7.81447C4.71057 7.80972 4.93271 7.80538 5.20018 7.80159C5.73522 7.79401 6.45304 7.78859 7.23237 7.78643H7.23265H7.24226C8.70748 7.78643 9.4572 7.78643 9.86711 7.8115C10.0719 7.82403 10.2016 7.8432 10.2964 7.8759C10.3967 7.91049 10.4529 7.95874 10.5104 8.01057ZM10.5104 8.01057C10.5101 8.01031 10.5098 8.01005 10.5095 8.00979L10.4442 8.08553M10.5104 8.01057C10.5107 8.01081 10.511 8.01104 10.5112 8.01128L10.4442 8.08553M10.4442 8.08553C10.2235 7.88643 10.1802 7.88643 7.23265 7.88643L10.3966 9.21091C10.5741 9.09405 10.6953 8.86897 10.6953 8.66121C10.6953 8.47942 10.5698 8.19374 10.4442 8.08553Z" fill="#6B7772" stroke="#6B7772" stroke-width="0.2"/>
<path d="M4.30057 10.5973C4.32648 10.5922 4.37087 10.5887 4.42309 10.5858C4.47886 10.5828 4.55171 10.58 4.63879 10.5774C4.81307 10.5724 5.04656 10.5683 5.31899 10.5651C5.86397 10.5588 6.56642 10.5563 7.26623 10.5571C7.96605 10.5579 8.66361 10.5621 9.19884 10.5693C9.46638 10.5729 9.69377 10.5773 9.86074 10.5825C9.94414 10.585 10.0131 10.5878 10.0646 10.5908C10.0904 10.5922 10.1125 10.5938 10.1303 10.5955C10.1459 10.597 10.1645 10.5992 10.1794 10.6031L10.1794 10.603L10.1806 10.6034C10.8389 10.7838 11.024 11.6825 10.4523 12.064C10.4522 12.0641 10.4521 12.0641 10.452 12.0642L10.3054 12.1634L10.28 12.1806H10.2494H7.24123H7.23618C5.73874 12.1806 4.98577 12.1806 4.58876 12.1686C4.3912 12.1627 4.27516 12.1537 4.19762 12.1385C4.1125 12.1219 4.07186 12.0973 4.02918 12.0705C3.92284 12.0063 3.81566 11.8773 3.76127 11.7586L3.76127 11.7586L3.76108 11.7582C3.53131 11.2508 3.76783 10.6982 4.30057 10.5973ZM4.30057 10.5973C4.30029 10.5974 4.3 10.5974 4.29972 10.5975L4.31963 10.6955M4.30057 10.5973C4.30074 10.5973 4.30092 10.5973 4.30109 10.5972L4.31963 10.6955M4.31963 10.6955C4.59664 10.6392 9.95507 10.6479 10.1542 10.6998L3.85217 11.717C3.64442 11.2582 3.86083 10.7821 4.31963 10.6955Z" fill="#6B7772" stroke="#6B7772" stroke-width="0.2"/>
<path d="M5.66312 13.3642L5.66312 13.3642L5.66447 13.3638C5.68293 13.3595 5.71064 13.357 5.73748 13.3552C5.76745 13.3531 5.8062 13.3511 5.85225 13.3493C5.94448 13.3457 6.06841 13.3425 6.21485 13.3401C6.50785 13.3352 6.89273 13.333 7.29804 13.3352L7.32222 13.3353C8.12501 13.3395 8.54431 13.3417 8.78523 13.3838C8.91108 13.4057 9.00059 13.4402 9.0734 13.4995C9.14118 13.5546 9.18737 13.6264 9.23495 13.7003L9.23802 13.7051C9.2381 13.7052 9.23818 13.7053 9.23825 13.7054C9.4912 14.0924 9.43301 14.581 9.07185 14.8252L9.07182 14.8252L8.91168 14.9334L8.88631 14.9506H8.85569H7.24989H7.24118C6.45256 14.9506 6.04922 14.9506 5.82567 14.938C5.71359 14.9317 5.63875 14.9219 5.58027 14.9044C5.5186 14.8859 5.47974 14.8601 5.4421 14.8347C5.38905 14.8008 5.33431 14.7471 5.28762 14.6912C5.2401 14.6343 5.19528 14.5683 5.16492 14.5054C5.04141 14.2625 5.02818 14.0108 5.11948 13.7997C5.21113 13.5877 5.40274 13.4293 5.66312 13.3642Z" fill="#6B7772" stroke="#6B7772" stroke-width="0.2"/>
</g>
<defs>
<clipPath id="clip0_515_21376">
<rect width="20" height="20" fill="white"/>
</clipPath>
</defs>
</svg>
