<svg width="22" height="20" viewBox="0 0 22 20" fill="none" xmlns="http://www.w3.org/2000/svg">
<path d="M4.6774 0.618233C4.27356 0.730696 3.87483 0.95562 3.563 1.23677C3.06203 1.68151 2.99047 1.84509 2.04476 4.68731C1.19619 7.22793 1.1604 7.31995 1.00193 7.42218C0.552086 7.69823 0.158469 8.29121 0.0511191 8.85352C0.0204476 9.01199 0 10.1979 0 11.7417C0 14.6198 0.00511191 14.676 0.316938 15.1309C0.480519 15.3661 0.812794 15.637 1.00705 15.683C1.11951 15.7137 1.12462 15.7341 1.12462 16.2351C1.12462 16.6952 1.13996 16.7821 1.27287 17.0581C1.45178 17.4466 1.78406 17.7534 2.17256 17.8965C2.45883 18.0038 2.53551 18.0089 3.93106 17.9936L5.39306 17.9783L5.68444 17.8351C6.28254 17.5387 6.59436 16.9968 6.59436 16.2402V15.8057H10.9395H15.2846V16.2402C15.2846 16.9968 15.5964 17.5387 16.1945 17.8351L16.4859 17.9783L17.9479 17.9936C19.3384 18.0089 19.4201 18.0038 19.7115 17.8965C19.9313 17.8147 20.0898 17.7073 20.2994 17.4978C20.6674 17.1246 20.7544 16.8741 20.7544 16.2147V15.7239L20.923 15.6626C21.2093 15.5603 21.5058 15.2639 21.6847 14.8958L21.8534 14.5533L21.8687 11.8542C21.8841 9.00688 21.8687 8.78706 21.654 8.31166C21.516 8.01516 21.1429 7.58576 20.877 7.42218C20.7186 7.31995 20.6828 7.22793 19.8393 4.69754C18.8936 1.86043 18.8118 1.68151 18.3057 1.22655C18.1677 1.10386 17.9224 0.930059 17.7588 0.843157C17.1249 0.505772 17.4418 0.521107 10.9088 0.526218C5.45952 0.526218 4.95855 0.536442 4.6774 0.618233ZM17.0789 1.77864C17.3805 1.92177 17.6616 2.16714 17.8201 2.44318C17.8917 2.56076 18.2802 3.65471 18.684 4.86112L19.415 7.06435H10.9395H2.46394L3.18983 4.87645C3.59367 3.67515 3.95662 2.61699 4.00774 2.53009C4.21221 2.13136 4.58538 1.82976 5.00967 1.71729C5.18859 1.66617 6.56369 1.65595 11.0417 1.66106C16.8233 1.67129 16.8437 1.67129 17.0789 1.77864ZM19.9518 8.2452C20.192 8.31166 20.509 8.5877 20.6317 8.84329C20.7237 9.0171 20.7288 9.22157 20.7441 11.4862C20.7544 12.8357 20.7441 14.0421 20.7288 14.1648C20.7032 14.313 20.647 14.4408 20.5499 14.538L20.4067 14.6811H10.9395H1.47223L1.3291 14.538C1.23197 14.4408 1.17574 14.313 1.15018 14.1648C1.13484 14.0421 1.12462 12.8357 1.13484 11.4862C1.15018 8.7615 1.13996 8.85352 1.5029 8.5008C1.84029 8.17363 1.22686 8.19408 10.9139 8.18897C16.9971 8.18897 19.8189 8.20431 19.9518 8.2452ZM5.46974 16.1124C5.46974 16.4805 5.37262 16.6952 5.15792 16.8025C5.03012 16.8741 4.81031 16.8843 3.7777 16.869L2.54573 16.8537L2.39749 16.685C2.26458 16.5367 2.24924 16.4856 2.24924 16.1635V15.8057H3.85949H5.46974V16.1124ZM19.6297 16.1635C19.6297 16.4856 19.6144 16.5367 19.4815 16.685L19.3332 16.8537L18.1013 16.869C17.0687 16.8843 16.8489 16.8741 16.7211 16.8025C16.5064 16.6952 16.4092 16.4805 16.4092 16.1124V15.8057H18.0195H19.6297V16.1635Z" fill="#1D7950"/>
<path d="M3.70651 9.34935C2.70458 9.70719 2.14738 10.5507 2.21383 11.5986C2.27518 12.6159 3.03174 13.4491 4.05412 13.6178C5.01005 13.7763 5.9762 13.2549 6.40049 12.3552C6.51806 12.0944 6.55896 11.9258 6.5794 11.5986C6.64075 10.6631 6.20112 9.8861 5.38322 9.48226C5.02027 9.30335 4.95382 9.28801 4.47841 9.27267C4.08479 9.26245 3.90076 9.2829 3.70651 9.34935ZM4.83624 10.4842C5.2452 10.6682 5.52124 11.1743 5.44456 11.6088C5.40367 11.8593 5.25542 12.0893 4.99471 12.2989C4.81068 12.4472 4.76468 12.4574 4.39662 12.4574C4.02856 12.4574 3.98255 12.4472 3.79853 12.2989C3.69118 12.212 3.55315 12.0689 3.49181 11.9769C3.05219 11.3328 3.58894 10.3871 4.39662 10.3871C4.52442 10.3871 4.71867 10.4331 4.83624 10.4842Z" fill="#1D7950"/>
<path d="M7.66748 9.8249V10.3872H10.9391H14.2107V9.8249V9.26259H10.9391H7.66748V9.8249Z" fill="#1D7950"/>
<path d="M16.8436 9.32891C16.1023 9.57428 15.6014 10.0855 15.3764 10.8165C14.993 12.0791 15.8263 13.398 17.14 13.6178C18.096 13.7763 19.0621 13.2549 19.4864 12.3552C19.604 12.0944 19.6449 11.9258 19.6653 11.5986C19.7267 10.6631 19.287 9.8861 18.4691 9.48226C18.1062 9.30335 18.0449 9.28801 17.5643 9.27779C17.2372 9.26756 16.9714 9.28801 16.8436 9.32891ZM17.9222 10.4842C18.3311 10.6682 18.6072 11.1743 18.5305 11.6088C18.4896 11.8593 18.3413 12.0893 18.0806 12.2989C17.8966 12.4472 17.8506 12.4574 17.4825 12.4574C17.1145 12.4574 17.0685 12.4472 16.8844 12.2989C16.7771 12.212 16.6391 12.0689 16.5777 11.9769C16.1381 11.3328 16.6749 10.3871 17.4825 10.3871C17.6103 10.3871 17.8046 10.4331 17.9222 10.4842Z" fill="#1D7950"/>
<path d="M7.66748 13.0964V13.6587H10.9391H14.2107V13.0964V12.5341H10.9391H7.66748V13.0964Z" fill="#1D7950"/>
</svg>
